<svg width="22" height="22" viewBox="0 0 22 22" fill="none" xmlns="http://www.w3.org/2000/svg">
<path d="M20.7057 16.0146C20.7057 16.4402 20.586 16.8347 20.3943 17.1818L14.2652 10.3242L20.3278 5.01992C20.5636 5.39418 20.7057 5.83382 20.7057 6.3089V16.0146ZM10.9998 11.5693L19.4358 4.18806C19.0896 3.99854 18.6998 3.88232 18.2793 3.88232H3.7204C3.29937 3.88232 2.90942 3.99854 2.56464 4.18806L10.9998 11.5693ZM13.3517 11.1228L11.399 12.8324C11.2848 12.9319 11.1426 12.9816 10.9998 12.9816C10.857 12.9816 10.7148 12.9319 10.6006 12.8324L8.64745 11.1227L2.44082 18.0679C2.81285 18.3013 3.24884 18.4411 3.72036 18.4411H18.2793C18.7507 18.4411 19.1869 18.3013 19.5588 18.0679L13.3517 11.1228ZM1.67193 5.01988C1.43613 5.39414 1.29395 5.83378 1.29395 6.3089V16.0146C1.29395 16.4402 1.41309 16.8347 1.60556 17.1818L7.73393 10.323L1.67193 5.01988Z" fill="#251D1A"/>
</svg>
